<svg width="289" height="50" viewBox="0 0 289 50" fill="none" xmlns="http://www.w3.org/2000/svg">
<path d="M28.44 22V28H6.48V22H28.44ZM12.12 25L10.16 37.04L6.8 33.28H29.76V40H1.88L4.16 25L1.88 10H29.56V16.72H6.8L10.16 12.96L12.12 25ZM44.8378 10V36.32L41.1178 32.64H63.5578V40H36.5578V10H44.8378ZM94.7447 22V28H72.7847V22H94.7447ZM78.4247 25L76.4647 37.04L73.1047 33.28H96.0647V40H68.1847L70.4647 25L68.1847 10H95.8647V16.72H73.1047L76.4647 12.96L78.4247 25Z" fill="black"/>
<path d="M119.958 36.28H116.438L127.998 10H136.758L122.798 40H113.398L99.4384 10H108.318L119.958 36.28Z" fill="#051E6E"/>
<path d="M157.56 13.72H154.04L165.6 40H174.36L160.4 10H151L137.04 40H145.92L157.56 13.72Z" fill="#051E6E"/>
<path d="M192.76 10C196.307 10 199.413 10.6267 202.08 11.88C204.773 13.1067 206.853 14.8533 208.32 17.12C209.813 19.36 210.56 21.9867 210.56 25C210.56 28.0133 209.813 30.6533 208.32 32.92C206.853 35.16 204.773 36.9067 202.08 38.16C199.413 39.3867 196.307 40 192.76 40H177.8V10H192.76ZM186.04 36.52L182.08 32.64H193.4C195.187 32.64 196.733 32.3333 198.04 31.72C199.373 31.08 200.4 30.1867 201.12 29.04C201.84 27.8933 202.2 26.5467 202.2 25C202.2 23.4267 201.84 22.08 201.12 20.96C200.4 19.8133 199.373 18.9333 198.04 18.32C196.733 17.68 195.187 17.36 193.4 17.36H182.08L186.04 13.48V36.52ZM233.311 40.64C229.765 40.64 226.645 39.9867 223.951 38.68C221.285 37.3733 219.205 35.5467 217.711 33.2C216.245 30.8533 215.511 28.12 215.511 25C215.511 21.88 216.245 19.1467 217.711 16.8C219.205 14.4533 221.285 12.6267 223.951 11.32C226.645 10.0133 229.765 9.36 233.311 9.36C236.885 9.36 240.005 10.0133 242.671 11.32C245.338 12.6267 247.418 14.4533 248.911 16.8C250.405 19.1467 251.151 21.88 251.151 25C251.151 28.12 250.405 30.8533 248.911 33.2C247.418 35.5467 245.338 37.3733 242.671 38.68C240.005 39.9867 236.885 40.64 233.311 40.64ZM233.311 33.24C235.258 33.24 236.938 32.9067 238.351 32.24C239.765 31.5733 240.845 30.6267 241.591 29.4C242.365 28.1733 242.751 26.7067 242.751 25C242.751 23.2933 242.365 21.8267 241.591 20.6C240.845 19.3733 239.765 18.4267 238.351 17.76C236.938 17.0933 235.258 16.76 233.311 16.76C231.391 16.76 229.725 17.0933 228.311 17.76C226.898 18.4267 225.805 19.3733 225.031 20.6C224.258 21.8267 223.871 23.2933 223.871 25C223.871 26.7067 224.258 28.1733 225.031 29.4C225.805 30.6267 226.898 31.5733 228.311 32.24C229.725 32.9067 231.391 33.24 233.311 33.24ZM263.145 23.12H274.065C275.398 23.12 276.438 22.8133 277.185 22.2C277.932 21.5867 278.305 20.7333 278.305 19.64C278.305 18.52 277.932 17.6667 277.185 17.08C276.438 16.4667 275.398 16.16 274.065 16.16H261.985L265.705 12.2V40H257.425V10H275.225C277.518 10 279.518 10.4133 281.225 11.24C282.932 12.04 284.265 13.16 285.225 14.6C286.185 16.0133 286.665 17.6933 286.665 19.64C286.665 21.5333 286.185 23.2 285.225 24.64C284.265 26.08 282.932 27.2 281.225 28C279.518 28.8 277.518 29.2 275.225 29.2H263.145V23.12ZM267.625 25.96H276.945L287.705 40H278.105L267.625 25.96Z" fill="black"/>
</svg>
