<svg width="32" height="30" viewBox="0 0 32 30" fill="none" xmlns="http://www.w3.org/2000/svg">
<path d="M23.6011 0.218506H8.20302C3.94902 0.218506 0.488281 3.68026 0.488281 7.93552V22.0267C0.488281 26.2819 3.94902 29.7437 8.20302 29.7437H23.6011C27.8551 29.7437 31.3159 26.2819 31.3159 22.0267V7.93552C31.3159 3.68026 27.8551 0.218506 23.6011 0.218506ZM3.2098 7.93552C3.2098 5.18181 5.45012 2.94082 8.20302 2.94082H23.6011C26.354 2.94082 28.5943 5.18181 28.5943 7.93552V22.0267C28.5943 24.7804 26.354 27.0214 23.6011 27.0214H8.20302C5.45012 27.0214 3.2098 24.7804 3.2098 22.0267V7.93552Z" fill="white"/>
<path d="M15.9006 22.1573C19.8565 22.1573 23.0766 18.9379 23.0766 14.9791C23.0766 11.0204 19.8582 7.80103 15.9006 7.80103C11.943 7.80103 8.72461 11.0204 8.72461 14.9791C8.72461 18.9379 11.943 22.1573 15.9006 22.1573ZM15.9006 10.5251C18.3571 10.5251 20.3551 12.5237 20.3551 14.9809C20.3551 17.4381 18.3571 19.4367 15.9006 19.4367C13.4441 19.4367 11.4461 17.4381 11.4461 14.9809C11.4461 12.5237 13.4441 10.5251 15.9006 10.5251Z" fill="white"/>
<path d="M23.7421 8.96088C24.8073 8.96088 25.6756 8.09413 25.6756 7.02683C25.6756 5.95952 24.8091 5.09277 23.7421 5.09277C22.6751 5.09277 21.8086 5.95952 21.8086 7.02683C21.8086 8.09413 22.6751 8.96088 23.7421 8.96088Z" fill="white"/>
</svg>
