<svg width="31" height="26" viewBox="0 0 31 26" fill="none" xmlns="http://www.w3.org/2000/svg">
<path d="M1.27242 12.0101C1.34216 11.9752 1.41193 11.9421 1.47993 11.9107C2.66198 11.3631 3.85973 10.8504 5.05573 10.3377C5.12024 10.3377 5.22831 10.2627 5.28933 10.2383C5.38173 10.1982 5.47415 10.1598 5.56655 10.1197C5.74438 10.0429 5.92222 9.96795 6.09831 9.89122C6.45397 9.73949 6.80787 9.58776 7.16353 9.43604L9.29227 8.52395C10.7114 7.91705 12.1324 7.30841 13.5515 6.70151C14.9707 6.09462 16.3916 5.48597 17.8108 4.87908C19.2299 4.27218 20.6508 3.66354 22.07 3.05665C23.4891 2.44975 24.9101 1.84111 26.3292 1.23421C26.6448 1.09818 26.9865 0.895877 27.3247 0.836582C27.6089 0.786007 27.8861 0.688351 28.172 0.634288C28.7142 0.531394 29.3122 0.489543 29.8318 0.714514C30.0114 0.792992 30.177 0.90286 30.3147 1.04063C30.9737 1.69287 30.8813 2.76366 30.7419 3.68098C29.7708 10.0743 28.7997 16.4694 27.8268 22.8628C27.6943 23.74 27.513 24.7026 26.8209 25.2572C26.2351 25.7264 25.4017 25.7787 24.6782 25.5799C23.9546 25.3793 23.3165 24.959 22.6907 24.5457C20.0947 22.8261 17.4969 21.1066 14.901 19.3871C14.2838 18.979 13.5969 18.4453 13.6038 17.7041C13.6073 17.2577 13.8741 16.8601 14.146 16.506C16.402 13.5622 19.6571 11.5393 22.0787 8.73148C22.4204 8.3356 22.6889 7.62058 22.2199 7.39212C21.941 7.25609 21.6202 7.44095 21.3656 7.61709C18.1647 9.84064 14.9655 12.0659 11.7645 14.2895C10.7202 15.015 9.6253 15.7614 8.36653 15.9393C7.24027 16.0997 6.10703 15.7858 5.01738 15.4649C4.10382 15.1963 3.19196 14.9208 2.28363 14.6365C1.8007 14.4865 1.30207 14.3244 0.928971 13.9843C0.555874 13.6442 0.341459 13.0722 0.566363 12.6188C0.707582 12.3345 0.981308 12.1549 1.26898 12.0084L1.27242 12.0101Z" fill="white"/>
</svg>
