<svg width="34" height="32" viewBox="0 0 34 32" fill="none" xmlns="http://www.w3.org/2000/svg">
<path d="M21.7376 23.4018C15.3688 23.4018 10.1873 18.217 10.1855 11.8463C10.1873 10.2314 11.5019 8.91821 13.1128 8.91821C13.2784 8.91821 13.4423 8.93216 13.5992 8.96007C13.9444 9.01762 14.2722 9.13446 14.5738 9.3106C14.6174 9.33676 14.647 9.37863 14.654 9.42746L15.327 13.6705C15.3357 13.7193 15.32 13.7699 15.2869 13.8065C14.9155 14.2181 14.4413 14.5146 13.913 14.6628L13.6585 14.7343L13.7544 14.9802C14.6226 17.1915 16.3905 18.9582 18.6029 19.8302L18.8487 19.9278L18.9202 19.6732C19.0684 19.1448 19.3648 18.6704 19.7762 18.299C19.8059 18.2711 19.846 18.2571 19.8861 18.2571C19.8948 18.2571 19.9035 18.2571 19.914 18.2588L24.1558 18.932C24.2063 18.9407 24.2482 18.9686 24.2743 19.0122C24.4487 19.3139 24.5655 19.6436 24.6248 19.9889C24.6527 20.1423 24.6649 20.3045 24.6649 20.4737C24.6649 22.0868 23.352 23.4 21.7376 23.4018Z" fill="white"/>
<path d="M33.0326 14.7239C32.6891 10.8419 30.9108 7.24061 28.0254 4.58456C25.1226 1.91282 21.3567 0.440918 17.4183 0.440918C8.77429 0.440918 1.74125 7.47604 1.74125 16.1226C1.74125 19.0245 2.54148 21.8515 4.05653 24.314L0.677734 31.7955L11.4958 30.6428C13.377 31.4136 15.368 31.8043 17.4165 31.8043C17.9553 31.8043 18.5079 31.7763 19.0624 31.7188C19.5505 31.6665 20.0439 31.5897 20.5286 31.4921C27.7674 30.0289 33.0518 23.6024 33.0936 16.2063V16.1226C33.0936 15.6517 33.0727 15.1808 33.0308 14.7257L33.0326 14.7239ZM11.9125 27.3589L5.92726 27.9972L7.71429 24.0367L7.35688 23.5571C7.33073 23.5222 7.30458 23.4873 7.27494 23.4472C5.72328 21.3039 4.90384 18.7717 4.90384 16.1243C4.90384 9.22174 10.5177 3.6062 17.4183 3.6062C23.883 3.6062 29.3626 8.65147 29.8909 15.0919C29.9188 15.4372 29.9345 15.7843 29.9345 16.1261C29.9345 16.2237 29.9327 16.3197 29.931 16.4225C29.7985 22.1968 25.7659 27.1008 20.1241 28.3495C19.6935 28.4454 19.2524 28.5186 18.813 28.5657C18.3563 28.618 17.8873 28.6442 17.4218 28.6442C15.7638 28.6442 14.1528 28.3233 12.6308 27.6885C12.4617 27.6205 12.296 27.5472 12.1409 27.4723L11.9142 27.3624L11.9125 27.3589Z" fill="white"/>
</svg>
